<?xml version="1.0" encoding="UTF-8"?>
<svg id="Layer_1" data-name="Layer 1" xmlns="http://www.w3.org/2000/svg" version="1.1" viewBox="0 0 1920 1080">
  <defs>
    <style>
      .cls-1 {
        fill: #000;
      }

      .cls-1, .cls-2 {
        stroke-width: 0px;
      }

      .cls-2 {
        fill: #fff;
      }
    </style>
  </defs>
  <path class="cls-2" d="M1206.01,376.61c3,.68,6.08,1.33,9.13,2.09,24.78,6.15,41.65,27,41.77,52.54.22,46.5.06,93,.09,139.5,0,9.67.29,19.33.12,29-.61,35.54-23.05,57.81-58.71,58.03-30.33.18-60.66-.06-90.99-.07-84.33-.02-168.66.01-252.99-.01-45.83-.01-91.66.06-137.49-.21-29.14-.17-52.03-22-53.88-51.11-.6-9.47-.4-18.99-.4-28.49.01-48.33.42-96.67,0-145-.27-30.94,24.69-56.22,56.59-56.03,57.99.33,115.99.11,173.99.11,94.99,0,189.99,0,284.98-.13,1.87,0,4.24-1.03,5.51-2.39,9.57-10.23,11.05-26.35,2.79-37.83-4.62-6.42-10.52-11.97-16.11-17.65-6.87-6.98-13.02-14.39-15.33-24.15-3.52-14.87-.22-28.4,8.7-40.65,8.05-11.06,18.14-19.92,29.65-27.22,5.37-3.4,11.12-2.5,14.12,2.12,3.06,4.71,1.54,10.01-3.55,13.83-6.25,4.68-12.57,9.34-18.33,14.58-3.39,3.08-6.18,7.03-8.52,11-7.5,12.72-6.36,22.78,3.65,33.69,5.63,6.13,12,11.63,17.24,18.06,13.32,16.34,16.42,34.51,8.24,54.26-.19.45-.26.95-.35,1.43-.03.16.03.33.07.72ZM961.03,404.03v-.07c-78.83,0-157.67.06-236.5-.03-24.85-.03-35.07,9.92-34.99,34.75.07,20.67.23,41.33.23,62,0,32.5-.12,65-.15,97.5-.02,21.35,9.81,31.85,31.13,32.46,14.82.43,29.66.11,44.49.11,102.83-.02,205.66-.07,308.49-.08,41.83,0,83.66.11,125.5.1,19.52,0,30.98-11.73,30.86-31.33-.03-4.5-.11-9-.11-13.5,0-50.67.1-101.34,0-152.01-.04-18.8-11.28-29.87-29.94-29.88-79.67-.04-159.33-.02-239-.02Z"/>
  <path class="cls-2" d="M1215.43,223.28c8.01-10.58,16.01-21.16,24.67-32.6,4.11,4.71,7.84,8.99,11.97,13.73-12.29,6.9-24.08,13.51-35.86,20.12-.26-.42-.53-.83-.79-1.25Z"/>
  <path class="cls-2" d="M1193.19,215.87c-6.07-11.86-12.13-23.72-18.51-36.18,5.76-1.61,11.11-3.11,17.46-4.89.85,13.87,1.68,27.34,2.51,40.81-.49.09-.97.18-1.46.27Z"/>
  <path class="cls-2" d="M1205.76,216.96c.53-8.85,1.06-17.69,1.64-27.39,4.18,1.12,7.86,2.11,12.02,3.22-4.36,8.52-8.42,16.44-12.47,24.36-.4-.07-.79-.13-1.19-.2Z"/>
  <path class="cls-2" d="M1217.4,234.52c8.66-.82,17.32-1.64,26.96-2.55-.37,4.18-.7,7.95-1.09,12.37-9.18-3.05-17.57-5.83-25.97-8.62.03-.4.06-.8.1-1.2Z"/>
  <path class="cls-2" d="M1168.98,197.23c5.99,7.69,11.49,14.76,16.99,21.82-.2.3-.39.6-.59.91-7.97-4.32-15.93-8.64-24.4-13.23,2.68-3.19,5.08-6.03,8-9.49Z"/>
  <path class="cls-2" d="M1224.99,255.14c-1.23.9-3.07,2.25-5.66,4.14-2.42-5.88-4.62-11.25-6.82-16.61.22-.12.45-.24.67-.36,3.89,4.23,7.78,8.45,11.81,12.82Z"/>
  <path class="cls-2" d="M1166.95,234.83c-.45-3.05-.76-5.12-1.2-8.1,6.1.27,11.76.52,17.41.77.06.37.11.73.17,1.1-5.16,1.96-10.32,3.93-16.38,6.23Z"/>
  <path class="cls-1" d="M961.03,404.03c79.67,0,159.33-.02,239,.02,18.67,0,29.9,11.08,29.94,29.88.11,50.67.01,101.34,0,152.01,0,4.5.08,9,.11,13.5.12,19.6-11.34,31.32-30.86,31.33-41.83.02-83.66-.1-125.5-.1-102.83,0-205.66.05-308.49.08-14.83,0-29.67.32-44.49-.11-21.32-.62-31.15-11.12-31.13-32.46.04-32.5.15-65,.15-97.5,0-20.67-.16-41.33-.23-62-.08-24.83,10.14-34.78,34.99-34.75,78.83.09,157.66.03,236.5.03v.07ZM959.49,609.21v.14c33.47,0,66.94,0,100.42,0,5.79,0,8.33-2.1,8.8-7.83.27-3.31.05-6.66.05-9.99-.01-9.9-1.67-11.55-11.62-11.54-65.28.01-130.56.03-195.84.04-1.33,0-2.68-.1-3.99.06-4.03.5-6.3,2.66-6.34,6.91-.04,3.83-.25,7.66-.28,11.48-.07,8.62,1.97,10.71,10.4,10.71,32.81,0,65.61,0,98.42,0ZM740.45,541.23v.03c-11.17,0-22.33-.08-33.5.03-6.04.06-8.04,2.15-8.16,8.18-.09,4.83-.11,9.67.04,14.5.16,5.15,2.16,7.41,7.34,7.44,22.83.14,45.67.15,68.5.03,4.09-.02,7.04-2.11,7.2-6.67.17-4.66.36-9.33.26-13.99-.17-7.41-2.35-9.51-9.68-9.54-10.67-.04-21.33-.01-32-.01ZM1183.72,455.99c0-.1,0-.2,0-.3,4.66,0,9.32-.04,13.98.01,4.66.05,9.32.31,13.98.26,6.23-.08,8.56-2.03,9.02-8.19.39-5.3.3-10.65.06-15.96-.2-4.3-2.81-6.73-7.14-6.74-19.81-.07-39.62-.08-59.43-.02-4.55.01-7.18,2.41-7.27,7.08-.1,4.99-.22,9.99.02,14.97.33,6.79,2.53,8.82,9.33,8.88,9.15.08,18.31.02,27.46.02ZM731.87,531.88c0,.06,0,.12,0,.18,8.32,0,16.63.09,24.94-.03,6.07-.09,8.53-2.29,9-8.33.34-4.3.23-8.65.02-12.96-.27-5.61-2.53-7.75-8.17-7.77-16.97-.06-33.93-.06-50.9,0-5.4.02-7.74,1.95-8.22,7.29-.37,4.11.11,8.29.11,12.44,0,6.77,2.16,9.12,8.76,9.16,8.15.05,16.3.01,24.45.01ZM1149.45,502.85c-8.5,0-16.99-.03-25.49.01-5.53.03-7.92,2.37-8.03,7.84-.09,4.33-.12,8.66-.05,12.99.07,5.03,2.62,7.85,7.67,7.9,16.98.17,33.97.23,50.95.17,5.79-.02,8.11-2.3,8.52-8.2.3-4.31.21-8.66.06-12.98-.2-5.6-2.38-7.65-8.14-7.7-8.49-.08-16.99-.02-25.49-.02ZM724.2,464.92c-5.82,0-11.65-.1-17.47.03-5.27.12-7.75,2.29-8.09,7.43-.3,4.46-.4,8.99.05,13.43.61,5.95,2.81,7.86,8.79,7.95,11.14.15,22.29.13,33.44,0,6.01-.07,8.5-2.43,8.95-8.42.29-3.8.16-7.65.07-11.47-.15-6.43-2.68-8.86-9.27-8.93-5.49-.06-10.98-.01-16.47-.01ZM1157.53,492.98v.02c5.65,0,11.3.14,16.94-.04,4.79-.15,7.34-2.69,7.52-7.47.17-4.47.08-8.97-.1-13.44-.2-4.92-2.85-7.76-7.84-7.8-10.96-.1-21.92-.09-32.88,0-4.97.04-7.7,2.84-7.99,7.71-.25,4.14-.23,8.3-.14,12.45.14,5.91,2.7,8.47,8.54,8.56,5.31.08,10.63.02,15.95.02ZM1119.02,570.84v-.02c5.67,0,11.33.04,17-.01,4.26-.04,7.19-2.08,7.49-6.41.35-4.97.3-9.98.02-14.96-.26-4.71-3.1-7.26-7.85-7.29-10.83-.07-21.66-.07-32.49-.03-5.01.02-7.79,2.71-8.07,7.63-.24,4.32-.23,8.66-.07,12.99.22,5.78,2.57,7.98,8.47,8.08,5.16.09,10.33.02,15.5.02ZM1220.82,556.5s.1,0,.15,0c0-2.5.05-5-.01-7.49-.11-4.26-2.26-7.24-6.49-7.51-5.78-.36-11.63-.2-17.42.16-3.62.23-5.62,2.63-5.71,6.37-.11,4.33-.34,8.66-.28,12.98.09,7.25,2.46,9.57,9.56,9.72,2.16.05,4.33.18,6.49.24,11.33.34,14.49-1.14,13.72-12.99-.03-.5,0-1,0-1.5ZM973.91,558.09c0-2.5.12-5-.02-7.48-.36-6.14-2.66-8.24-8.71-8.3-3.16-.03-6.32-.26-9.48-.29-9.6-.08-11.24,1.58-11.27,11.25,0,1-.04,2-.1,2.99-.79,14.43.4,15.65,15.03,15.46q13.67-.18,14.56-13.63ZM1122.82,478.26q-.65-13.91-14.55-14.09c-14.51-.19-15.67,1-15.15,15.52.5,13.82,1.55,14.77,15.55,14.08,13.9-.68,14.79-1.66,14.15-15.51ZM831.03,557.56c.07,0,.13,0,.2,0,.08,1.66.24,3.33.23,4.99-.03,6.72,1.71,8.81,8.22,9.12,4.49.21,9.01.33,13.49,0,5.43-.4,7.69-2.98,7.81-8.44.09-4.33-.11-8.66-.18-13-.09-5.25-2.14-7.75-7.41-8.1-4.14-.28-8.32.12-12.48.18-7.68.1-9.75,2.12-9.88,9.74-.03,1.83,0,3.66,0,5.5ZM809.8,542.12c-14.33-.73-15.31.16-15.76,14.3-.45,14.2.9,15.59,14.92,15.29q13.89-.29,14.71-13.87c.85-14.03-.03-15.02-13.87-15.73ZM955.99,517.58c0-1.66,0-3.33,0-4.99-.02-7.9-2.53-10.44-10.48-10.51-3.66-.03-7.34-.07-10.98.17-6.24.42-8.15,2.63-8.16,8.82,0,2.33-.16,4.66-.26,6.99-.43,10.12.59,14.68,12.44,13.79.66-.05,1.33.05,1.99.09,16.62,1,15.74-3.44,15.46-14.35ZM1220.86,478.35c-.47-13.84-1.78-14.67-15.93-14.25-14.89.44-13.36,2.33-13.73,13.93-.46,14.65.48,15.76,14.96,15.76,14.23,0,15.19-1.01,14.7-15.45ZM844.07,464.05s0,.09,0,.14c-1.33.09-2.66.24-3.98.27-8.27.17-10.13,2.03-10.11,10.42,0,3.66.36,7.32.23,10.97-.17,4.76,2.2,7.34,6.64,7.67,5.13.37,10.32.48,15.45.14,5.25-.35,7.38-2.84,7.6-8.07.13-3.15-.1-6.32-.16-9.48-.21-10.67-2-12.37-12.67-12.05-1,.03-2,0-2.99,0ZM842.8,516.13c0-1,.01-1.99,0-2.99-.15-9.41-1.91-11.09-11.48-10.98-.83,0-1.66.06-2.49.06-15.15-.07-16.35,1.16-15.55,16.03.73,13.48,1.59,14.25,15.4,13.68,14.22-.58,14.83-1.26,14.11-15.81ZM1011.04,556.47h-.27c0-1.67,0-3.33,0-5-.04-7.13-2.04-9.32-9.06-9.47-4.66-.1-9.42-.38-13.94.46-2.2.41-5.38,2.98-5.65,4.92-.82,5.87-.68,11.92-.43,17.88.19,4.36,3.21,6.43,7.41,6.53,3.33.08,6.66-.15,9.99-.24,10.81-.27,12.26-1.8,11.94-12.58-.02-.83,0-1.66,0-2.5ZM790.61,531.87c1.83,0,3.67.03,5.5,0,7.52-.14,9.68-2.29,9.76-10,.03-3.33-.29-6.66-.34-9.99-.13-7.6-2.19-9.7-9.82-9.81-1.83-.03-3.67.02-5.5.13q-14.05.85-14.05,15.07c0,14.21.41,14.63,14.46,14.6ZM1105.91,516.68c-.44-14.15-1.92-15.47-16.14-14.43q-13.43.98-13.39,14.65c.04,14.78.29,15.03,15.07,15.01,13.94-.02,14.91-1.03,14.46-15.23ZM943.25,478.45s-.04,0-.07,0c0,2.99-.74,6.24.22,8.89.87,2.41,3.35,5.55,5.52,5.91,5.51.91,11.26.69,16.89.42,3.87-.19,6.53-2.44,6.68-6.68.17-4.65.35-9.31.28-13.95-.09-6.03-2.4-8.48-8.42-8.87-3.64-.24-7.31,0-10.97-.01-7.99-.01-11.3,2.81-10.16,10.32.2,1.3.03,2.65.03,3.98ZM896.91,478.41c-.65-14.09-1.73-15.07-15.8-14.18q-13.34.84-13.74,14.24c-.43,14.29,1,15.71,15.37,15.24,14.07-.46,14.81-1.27,14.17-15.29ZM1009.97,478.7h-.26c0-1.99-.01-3.99,0-5.98.05-5.77-1.62-7.91-7.42-8.38-4.62-.38-9.31-.43-13.94-.16-5.74.34-8.03,2.84-8.17,8.59-.11,4.31.18,8.63.24,12.95.08,5.21,2.11,7.66,7.44,8.02,3.8.26,7.63-.11,11.45-.17,8.99-.14,10.73-1.91,10.66-10.89,0-1.33,0-2.66,0-3.99ZM977.54,502.04c0,.11,0,.21,0,.32-2.49,0-5.22-.64-7.41.18-2.32.87-5.61,2.91-5.87,4.8-.82,6.03-.76,12.25-.41,18.35.25,4.31,3.45,6.27,7.64,6.3,4.83.03,9.66-.06,14.48-.21,4.42-.14,6.73-2.77,6.98-6.95.24-3.98.05-7.98-.03-11.98-.18-9.07-2.15-10.91-11.39-10.8-1.33.02-2.66,0-3.99,0ZM806.85,493.78c13.92.72,14.92-.17,15.67-13.89.79-14.44-.63-15.95-14.9-15.73q-14.08.21-14.71,13.92c-.71,15.66,1.5,15.77,13.93,15.7ZM1033.3,493.92v-.34c1.5,0,2.99,0,4.49,0,6.97,0,8.99-1.85,9.21-8.65.13-3.99.22-7.99.08-11.98-.21-6.25-2.81-8.81-8.94-8.87-4.49-.05-8.98.1-13.47.23-4.09.12-6.73,2.3-7.08,6.3-.36,4.11-.14,8.28.05,12.42.42,9.48,2.23,11.1,11.67,10.89,1.33-.03,2.66,0,3.99,0ZM897.85,556.68c0-1.83,0-3.66,0-5.5.02-6.75-2-8.93-8.82-9.18-2.99-.11-5.99.1-8.99.23-10.61.46-12.43,2.55-11.71,13.37.06.83.16,1.66.22,2.49q1.05,13.36,14.37,13.62c14.38.28,15.5-.84,14.92-15.04ZM952.06,441.35c0-2.16.07-4.33-.01-6.49-.27-6.81-2.41-8.87-9.09-9.03-2.66-.06-5.32-.27-7.98-.41-10.13-.54-12.43,1.59-12.57,11.59-.01.83-.06,1.66-.1,2.5-.71,14.81.39,15.57,15.38,15.73,16.68.17,13.98-3.62,14.38-13.89ZM1070.92,493.62c1.66,0,3.32,0,4.99,0,7.43,0,9.75-2.22,9.84-9.8.04-3.48-.42-6.97-.46-10.45-.08-7.02-2.07-9.13-9.16-9.34-1.99-.06-3.99.01-5.98.14q-13.86.88-14.1,14.9c-.25,13.89,1.04,15.15,14.89,14.55ZM771.22,464.16s0-.07,0-.1c-2.33,0-4.67-.14-6.99.03-6.25.45-8.25,2.54-8.36,8.73-.08,4.5.06,8.99-.03,13.49-.09,4.54,2.32,6.98,6.54,7.21,5.47.3,10.99.3,16.46-.06,4.21-.27,6.55-2.71,6.35-7.32-.14-3.15.18-6.32.36-9.47.56-9.52-1.52-11.89-10.84-12.29-1.16-.05-2.33-.14-3.49-.22ZM919.78,493.73c14.19.7,14.91.07,15.7-13.85,0-.17.02-.33.03-.5.81-13.64-.81-15.35-14.44-15.25-14.9.11-15.57.8-15.12,15.51q.42,13.42,13.82,14.09ZM1167.79,570.76c1.83,0,3.66.01,5.5,0,6.48-.05,8.71-1.92,9.16-8.49.26-3.8-.24-7.64-.32-11.47-.15-7.59-2.21-9.68-9.84-9.78-1.83-.02-3.66.09-5.49.14-11.17.29-14.18-2.13-14.06,14.58.1,14.57.79,15.53,15.06,15.01ZM1055.87,556.37s-.08,0-.12,0c0,2.66-.06,5.33.01,7.99.12,4.11,2.39,6.86,6.34,7.08,5.95.32,12.01.36,17.88-.48,1.95-.28,4.48-3.38,4.97-5.59.92-4.16.7-8.6.69-12.93-.01-7.87-2.2-9.98-10.05-10.13-1.67-.03-3.33-.15-4.99-.23-13.21-.61-14.38.44-14.72,13.29,0,.33,0,.67,0,1ZM1015.32,531.92q14.44-.01,14.78-14.71c.34-14.22-.96-15.38-15.12-14.99-12.7.36-14.05-.94-14.34,14.23-.27,14.28.48,15.48,14.67,15.47ZM884.91,440.96c.08,0,.16,0,.23,0,0,2,0,3.99,0,5.99.02,5.53,1.82,7.77,7.2,8.07,4.97.27,9.97.16,14.95.02,4.86-.14,7.25-3.09,7.43-7.69.18-4.65-.07-9.31-.1-13.97-.03-4.58-2.33-7.28-6.84-7.6-3.79-.27-7.63-.09-11.44.03-10.18.32-11.68,1.95-11.42,12.16.02,1,0,1.99,0,2.99ZM880.11,516.22c-.64-13.64-1.87-14.78-15.12-14.02q-13.87.79-14.44,14.69c-.57,13.9,1.07,15.52,15.12,15,14.42-.54,15.11-1.29,14.44-15.66ZM728.75,595.49c.67-14.26-.1-14.92-14.39-15.74-17.04-.98-15.28,3.74-15.34,14.32-.09,14.47.87,15.35,15.46,15.31,14.11-.04,14.49-1.75,14.27-13.89ZM917.4,516.36s-.04,0-.06,0c-.08-1.66-.2-3.33-.24-4.99-.18-7.08-2.16-9.17-9.27-9.28-4.49-.07-8.99.1-13.48.28-4.01.17-6.15,2.6-6.33,6.38-.26,5.32-.31,10.66-.09,15.98.19,4.79,3.11,7.2,7.83,7.26,3.66.04,7.35-.43,10.99-.16,8.28.63,10.63-2.22,10.87-10.98.04-1.49-.14-2.99-.22-4.49ZM1220.78,517.43c0-1.66,0-3.33,0-4.99-.05-7.68-1.97-9.67-9.79-9.79-3.65-.06-7.31.22-10.97.25-6.65.06-8.64,1.99-8.68,8.59,0,1.5-.01,2.99-.06,4.49-.56,15.62-.23,15.96,15.31,16.21,13.53.22,14.75-1.04,14.19-14.75ZM1205.39,579.91c-1.83,0-3.66,0-5.49,0-6.03-.02-8.16,1.74-8.58,7.76-.32,4.47-.38,8.99-.13,13.46.32,5.7,2.76,8,8.54,8.27,3.48.16,6.98-.17,10.47-.21,8.86-.08,10.87-2.06,10.85-10.85,0-1.5-.18-3-.13-4.49.46-13.5-1.65-14.74-15.52-13.95ZM1037.75,515.82c0,2.66-.16,5.33.03,7.98.43,5.83,2.73,7.86,8.6,7.98,2.99.06,5.99.21,8.98.27,9.97.19,11.7-1.47,11.79-11.25,0-1,.05-2,.1-2.99.74-14.58-.44-15.81-14.96-15.6q-13.81.2-14.55,13.62ZM786.56,425.82c-1.66,0-3.33,0-4.99,0-7.22.03-9.52,2.22-9.63,9.5-.06,4.16.19,8.32.26,12.48.07,4.4,2.36,6.96,6.62,7.25,4.13.28,8.3.01,12.46-.05,8.94-.13,10.55-1.8,10.54-10.9,0-1.17-.06-2.33-.04-3.5.24-14.24-.95-15.41-15.22-14.78ZM997.88,441.01c.08,0,.16,0,.24,0,0,2,0,4,0,6,.02,5.59,1.77,7.76,7.22,8.02,5.15.25,10.33.14,15.49-.04,4.09-.14,6.53-2.31,6.58-6.59.07-5.16.08-10.33.04-15.49-.03-4.43-2.5-6.83-6.76-7.12-3.64-.25-7.31-.14-10.96,0-10.83.42-12.17,1.9-11.86,12.72.02.83,0,1.67,0,2.5ZM1018.56,557.07h.11c0,2.16-.07,4.32.01,6.47.22,5.72,1.73,7.63,7.21,8.02,4.95.36,9.97.44,14.91.07,5.17-.38,7.25-2.89,7.37-8.2.11-4.81-.02-9.62-.16-14.43-.13-4.44-2.63-6.58-6.96-6.74-2.98-.11-5.97-.16-8.95-.26-11.87-.42-13.44,1.09-13.53,13.08,0,.66,0,1.33,0,1.99ZM1168.16,579.82c-.83-.04-1.66-.07-2.49-.13-12.37-.81-14.39,2.66-13.49,12.03.08.82-.05,1.66-.1,2.49-.74,13.74,1.38,15.23,13.45,15.18,15.44-.06,16.24-.29,16.09-15.55-.13-13.34-.21-13.42-13.47-14.02ZM1064.64,442.05c0-3.41.26-6.59-.07-9.7-.36-3.38-2.16-6.2-5.86-6.41-5.62-.32-11.27-.33-16.9-.11-3.79.14-6.22,2.45-6.42,6.32-.27,5.13-.35,10.29-.23,15.43.11,4.75,2.82,7.29,7.55,7.51,2.98.14,5.97.03,8.95.06,11.83.09,12.43-.46,12.89-11.86.02-.5.06-.99.08-1.23ZM754,579.91c-1.5,0-2.99,0-4.49,0-6.87-.03-8.9,1.78-9.29,8.66-.21,3.81-.25,7.65-.13,11.47.2,6.73,2.72,9.22,9.54,9.42,3.32.1,6.65-.22,9.97-.25,8.28-.07,10.34-2.06,10.42-10.25.01-1.5-.06-2.99-.12-4.49-.58-14.76-1.12-15.26-15.91-14.56ZM1128.43,609.29c0,.14.02.27.03.41,3.47-.22,7.08.08,10.35-.84,2.02-.57,4.79-2.82,5.02-4.6.74-5.9.74-11.93.5-17.89-.15-3.65-2.35-6.28-6.36-6.44-4.99-.19-9.99-.33-14.98-.17-5.46.18-7.77,2.56-8.09,8.09-.19,3.32.01,6.66,0,9.98-.02,9.93,1.02,11,11.03,11.34.83.03,1.66.08,2.49.12ZM750.2,425.73c-2,0-4-.04-6,0-7.1.16-9.19,2.18-9.32,9.3-.07,4.16.23,8.32.2,12.49-.03,4.66,2.28,7.39,6.79,7.58,5.8.24,11.68.31,17.42-.39,1.77-.21,4.01-2.94,4.6-4.94.87-2.93.55-6.25.55-9.4.03-14.42-.24-14.68-14.25-14.64ZM839.13,441.19c0-1.66,0-3.33,0-4.99-.03-8.23-1.96-10.16-10.25-10.36-2-.05-3.99-.19-5.98-.32-11.08-.69-12.96,1.01-13.39,12.17-.02.5-.07,1-.11,1.49-.93,14.79.46,15.97,15.03,16.06,16.65.1,14.38-3.02,14.7-14.04ZM807.18,595.44c0-1.99.03-3.99,0-5.98-.11-7.16-2.45-9.66-9.57-9.78-4.48-.08-8.98.05-13.45.39-4.25.33-6.57,2.66-6.52,7.19.04,3.48-.3,6.96-.4,10.45-.28,8.91,1.93,11.24,10.72,11.44,1.16.03,2.33.09,3.49.17,13.94.99,15.23-.16,15.74-13.88ZM934.99,555.95c0-1.83,0-3.66,0-5.49,0-5.86-1.68-7.92-7.47-8.26-4.81-.28-9.66-.3-14.47,0-4.57.27-7.44,2.72-7.38,7.67.04,3.49.56,7.03.17,10.47-.95,8.55,1.41,11.9,12.07,11.53,1-.03,2-.07,2.99-.12,14.65-.81,14.7-.86,14.08-15.79ZM1087.8,455c1.5,0,2.99,0,4.49,0,7.84-.02,9.53-1.71,9.66-9.69.02-1.16-.03-2.33-.03-3.49-.02-16.35-.23-16.56-16.44-16.05-12.48.39-13.88,1.9-13.32,14.35.02.5.04,1,.07,1.5.81,13.5,1.81,14.36,15.57,13.38ZM847.97,439.97c-.07,0-.14,0-.21,0,0,1.83-.02,3.66,0,5.49.08,7.28,2.22,9.62,9.48,9.82,4.49.12,8.99-.06,13.47-.3,3.25-.18,6.09-1.58,6.38-5.14.44-5.46.73-10.98.39-16.44-.36-5.75-2.66-7.42-8.38-7.55-2.83-.07-5.65-.31-8.48-.4-10.59-.34-13.59,2.36-12.66,11.53.1.99.01,2,.01,2.99ZM1139.3,441.65c0-1.83.02-3.66,0-5.49-.1-8.36-1.9-10.16-10.25-10.34-1.66-.04-3.33-.12-4.99-.22-12.33-.8-13.97.64-14.35,12.62-.01.33-.03.67-.04,1-.73,15.24.05,16.04,15.51,15.93q13.31-.1,14.13-13.5ZM1077.82,594.77c0,1.83-.01,3.66,0,5.49.05,6.53,1.93,8.79,8.39,9.22,3.46.23,7-.58,10.45-.25,8.6.82,10.96-2.94,10.85-11.41-.02-1.33-.21-2.65-.29-3.98q-.79-13.73-14.4-14.03c-14.51-.32-15.46.62-14.99,14.97ZM828.23,609.3c0,.13.02.26.02.4,3.47-.21,7.12.16,10.33-.85,2.11-.66,4.87-3.16,5.12-5.11.72-5.73.55-11.61.31-17.41-.15-3.71-2.27-6.28-6.3-6.41-5.15-.16-10.31-.25-15.46-.17-4.56.07-7.11,2.63-7.4,7.11-.24,3.64-.07,7.31-.09,10.97-.06,9.88,1.02,10.99,10.98,11.33.83.03,1.66.09,2.49.14ZM974.21,425.74c-2,0-3.99-.04-5.99,0-6.48.16-8.38,1.87-8.59,8.24-.16,4.65-.17,9.33.12,13.97.33,5.34,2.32,7,7.55,7.09,2.99.05,5.98.19,8.98.3,8.72.33,13.78-.79,12.61-11.43-.11-.98.06-1.99.1-2.99.61-14.32-.29-15.26-14.77-15.19ZM712.89,425.67c-14.79-.02-15.65.87-15.05,15.45.59,14.1,1.33,14.78,15.39,14.02q13.93-.75,13.93-14.88.01-14.57-14.28-14.59Z"/>
  <path class="cls-2" d="M959.49,609.21c-32.81,0-65.61,0-98.42,0-8.43,0-10.47-2.09-10.4-10.71.03-3.83.24-7.66.28-11.48.04-4.25,2.31-6.41,6.34-6.91,1.31-.16,2.66-.06,3.99-.06,65.28-.02,130.56-.03,195.84-.04,9.95,0,11.61,1.64,11.62,11.54,0,3.33.22,6.68-.05,9.99-.47,5.73-3.01,7.83-8.8,7.83-33.47,0-66.94,0-100.42,0v-.14Z"/>
  <path class="cls-2" d="M740.45,541.23c10.67,0,21.33-.03,32,.01,7.33.03,9.52,2.13,9.68,9.54.11,4.66-.09,9.33-.26,13.99-.16,4.57-3.11,6.65-7.2,6.67-22.83.11-45.67.11-68.5-.03-5.18-.03-7.18-2.29-7.34-7.44-.15-4.83-.13-9.67-.04-14.5.11-6.03,2.11-8.12,8.16-8.18,11.17-.11,22.33-.03,33.5-.03v-.03Z"/>
  <path class="cls-2" d="M1183.72,455.99c-9.15,0-18.31.06-27.46-.02-6.79-.06-8.99-2.08-9.33-8.88-.24-4.98-.12-9.98-.02-14.97.09-4.67,2.72-7.06,7.27-7.08,19.81-.06,39.62-.05,59.43.02,4.34.01,6.95,2.45,7.14,6.74.24,5.31.33,10.67-.06,15.96-.45,6.16-2.79,8.12-9.02,8.19-4.66.06-9.32-.21-13.98-.26-4.66-.05-9.32-.01-13.98-.01,0,.1,0,.2,0,.3Z"/>
  <path class="cls-2" d="M731.87,531.88c-8.15,0-16.3.04-24.45-.01-6.6-.04-8.76-2.39-8.76-9.16,0-4.15-.48-8.33-.11-12.44.48-5.34,2.82-7.27,8.22-7.29,16.97-.07,33.93-.07,50.9,0,5.64.02,7.9,2.15,8.17,7.77.21,4.31.31,8.66-.02,12.96-.47,6.04-2.93,8.24-9,8.33-8.31.13-16.63.03-24.94.03,0-.06,0-.12,0-.18Z"/>
  <path class="cls-2" d="M1149.45,502.85c8.5,0,16.99-.06,25.49.02,5.76.05,7.94,2.1,8.14,7.7.15,4.32.24,8.67-.06,12.98-.41,5.9-2.73,8.18-8.52,8.2-16.98.07-33.97,0-50.95-.17-5.04-.05-7.59-2.88-7.67-7.9-.06-4.33-.03-8.66.05-12.99.11-5.47,2.5-7.81,8.03-7.84,8.49-.05,16.99-.01,25.49-.01Z"/>
  <path class="cls-2" d="M724.2,464.92c5.49,0,10.98-.04,16.47.01,6.59.07,9.12,2.49,9.27,8.93.09,3.82.22,7.67-.07,11.47-.46,5.99-2.94,8.35-8.95,8.42-11.15.13-22.29.15-33.44,0-5.98-.08-8.19-2-8.79-7.95-.45-4.43-.35-8.97-.05-13.43.35-5.14,2.82-7.31,8.09-7.43,5.82-.13,11.65-.03,17.47-.03Z"/>
  <path class="cls-2" d="M1157.53,492.98c-5.32,0-10.63.07-15.95-.02-5.84-.09-8.4-2.64-8.54-8.56-.09-4.15-.11-8.31.14-12.45.29-4.88,3.03-7.67,7.99-7.71,10.96-.09,21.92-.1,32.88,0,4.99.05,7.64,2.88,7.84,7.8.18,4.48.26,8.97.1,13.44-.18,4.78-2.73,7.32-7.52,7.47-5.64.18-11.29.04-16.94.04v-.02Z"/>
  <path class="cls-2" d="M1119.02,570.84c-5.17,0-10.33.07-15.5-.02-5.9-.1-8.25-2.3-8.47-8.08-.16-4.32-.17-8.67.07-12.99.28-4.92,3.05-7.61,8.07-7.63,10.83-.04,21.66-.04,32.49.03,4.75.03,7.59,2.57,7.85,7.29.27,4.97.32,9.99-.02,14.96-.3,4.34-3.23,6.38-7.49,6.41-5.66.05-11.33.01-17,.01v.02Z"/>
  <path class="cls-2" d="M1220.82,556.5c0,.5-.03,1,0,1.5.76,11.85-2.4,13.33-13.72,12.99-2.16-.06-4.33-.19-6.49-.24-7.09-.16-9.47-2.48-9.56-9.72-.05-4.33.18-8.65.28-12.98.09-3.74,2.08-6.15,5.71-6.37,5.79-.36,11.63-.52,17.42-.16,4.23.26,6.38,3.25,6.49,7.51.06,2.5.01,4.99.01,7.49-.05,0-.1,0-.15,0Z"/>
  <path class="cls-2" d="M973.91,558.09q-.89,13.45-14.56,13.63c-14.63.19-15.82-1.03-15.03-15.46.05-1,.09-2,.1-2.99.03-9.67,1.68-11.34,11.27-11.25,3.16.03,6.32.26,9.48.29,6.06.06,8.36,2.16,8.71,8.3.14,2.49.02,4.99.02,7.48Z"/>
  <path class="cls-2" d="M1122.82,478.26c.65,13.85-.25,14.83-14.15,15.51-14,.69-15.05-.26-15.55-14.08-.53-14.52.64-15.71,15.15-15.52q13.9.18,14.55,14.09Z"/>
  <path class="cls-2" d="M831.03,557.56c0-1.83-.03-3.66,0-5.5.13-7.62,2.2-9.64,9.88-9.74,4.16-.06,8.34-.45,12.48-.18,5.27.35,7.32,2.85,7.41,8.1.07,4.33.27,8.67.18,13-.12,5.45-2.38,8.04-7.81,8.44-4.47.33-9,.22-13.49,0-6.51-.31-8.25-2.4-8.22-9.12,0-1.66-.15-3.33-.23-4.99-.07,0-.13,0-.2,0Z"/>
  <path class="cls-2" d="M809.8,542.12c13.84.7,14.71,1.7,13.87,15.73q-.82,13.58-14.71,13.87c-14.01.3-15.36-1.09-14.92-15.29.45-14.14,1.42-15.03,15.76-14.3Z"/>
  <path class="cls-2" d="M955.99,517.58c.28,10.91,1.16,15.36-15.46,14.35-.66-.04-1.34-.14-1.99-.09-11.85.89-12.86-3.67-12.44-13.79.1-2.33.25-4.66.26-6.99.01-6.19,1.93-8.4,8.16-8.82,3.65-.24,7.32-.2,10.98-.17,7.95.06,10.46,2.61,10.48,10.51,0,1.66,0,3.33,0,4.99Z"/>
  <path class="cls-2" d="M1220.86,478.35c.49,14.43-.48,15.45-14.7,15.45-14.48,0-15.42-1.11-14.96-15.76.37-11.6-1.17-13.49,13.73-13.93,14.15-.42,15.46.41,15.93,14.25Z"/>
  <path class="cls-2" d="M844.07,464.05c1,0,2,.03,2.99,0,10.66-.32,12.46,1.38,12.67,12.05.06,3.16.3,6.33.16,9.48-.22,5.23-2.35,7.73-7.6,8.07-5.13.34-10.32.24-15.45-.14-4.45-.32-6.81-2.91-6.64-7.67.13-3.65-.23-7.32-.23-10.97-.01-8.39,1.84-10.25,10.11-10.42,1.33-.03,2.66-.18,3.98-.27,0-.05,0-.09,0-.14Z"/>
  <path class="cls-2" d="M842.8,516.13c.72,14.55.11,15.22-14.11,15.81-13.82.57-14.68-.2-15.4-13.68-.8-14.87.39-16.1,15.55-16.03.83,0,1.66-.05,2.49-.06,9.57-.11,11.32,1.57,11.48,10.98.02.99,0,1.99,0,2.99Z"/>
  <path class="cls-2" d="M1011.04,556.47c0,.83-.02,1.67,0,2.5.32,10.78-1.13,12.31-11.94,12.58-3.33.08-6.66.32-9.99.24-4.2-.1-7.23-2.17-7.41-6.53-.26-5.96-.39-12.01.43-17.88.27-1.94,3.45-4.51,5.65-4.92,4.52-.83,9.28-.56,13.94-.46,7.02.15,9.02,2.35,9.06,9.47,0,1.67,0,3.33,0,5h.27Z"/>
  <path class="cls-2" d="M790.61,531.87c-14.05.03-14.46-.39-14.46-14.6q0-14.21,14.05-15.07c1.83-.11,3.66-.16,5.5-.13,7.63.11,9.69,2.22,9.82,9.81.06,3.33.38,6.66.34,9.99-.08,7.71-2.24,9.86-9.76,10-1.83.03-3.67,0-5.5,0Z"/>
  <path class="cls-2" d="M1105.91,516.68c.44,14.2-.52,15.21-14.46,15.23-14.78.02-15.03-.23-15.07-15.01q-.03-13.67,13.39-14.65c14.22-1.04,15.7.28,16.14,14.43Z"/>
  <path class="cls-2" d="M943.25,478.45c0-1.33.17-2.69-.03-3.98-1.14-7.51,2.17-10.33,10.16-10.32,3.66,0,7.33-.22,10.97.01,6.03.39,8.33,2.84,8.42,8.87.07,4.65-.11,9.31-.28,13.95-.15,4.24-2.81,6.49-6.68,6.68-5.63.28-11.38.49-16.89-.42-2.17-.36-4.65-3.5-5.52-5.91-.96-2.64-.22-5.9-.22-8.89.02,0,.04,0,.07,0Z"/>
  <path class="cls-2" d="M896.91,478.41c.64,14.03-.1,14.83-14.17,15.29-14.38.47-15.81-.95-15.37-15.24q.41-13.4,13.74-14.24c14.07-.88,15.15.09,15.8,14.18Z"/>
  <path class="cls-2" d="M1009.97,478.7c0,1.33,0,2.66,0,3.99.07,8.98-1.68,10.75-10.66,10.89-3.82.06-7.66.43-11.45.17-5.33-.37-7.36-2.81-7.44-8.02-.06-4.32-.34-8.64-.24-12.95.14-5.75,2.43-8.25,8.17-8.59,4.63-.27,9.32-.22,13.94.16,5.8.48,7.47,2.61,7.42,8.38-.02,1.99,0,3.99,0,5.98h.26Z"/>
  <path class="cls-2" d="M977.54,502.04c1.33,0,2.66.01,3.99,0,9.24-.11,11.21,1.74,11.39,10.8.08,3.99.28,8,.03,11.98-.25,4.19-2.56,6.81-6.98,6.95-4.83.15-9.66.24-14.48.21-4.19-.02-7.39-1.99-7.64-6.3-.35-6.11-.42-12.32.41-18.35.26-1.89,3.55-3.94,5.87-4.8,2.19-.82,4.92-.18,7.41-.18,0-.11,0-.21,0-.32Z"/>
  <path class="cls-2" d="M806.85,493.78c-12.44.07-14.64-.04-13.93-15.7q.62-13.71,14.71-13.92c14.27-.21,15.69,1.29,14.9,15.73-.75,13.72-1.75,14.61-15.67,13.89Z"/>
  <path class="cls-2" d="M1033.3,493.92c-1.33,0-2.66-.03-3.99,0-9.44.21-11.25-1.41-11.67-10.89-.18-4.14-.4-8.31-.05-12.42.35-4,2.99-6.18,7.08-6.3,4.49-.13,8.98-.28,13.47-.23,6.13.06,8.73,2.63,8.94,8.87.14,3.99.05,7.99-.08,11.98-.22,6.8-2.24,8.65-9.21,8.65-1.5,0-2.99,0-4.49,0v.34Z"/>
  <path class="cls-2" d="M897.85,556.68c.58,14.19-.54,15.32-14.92,15.04q-13.32-.26-14.37-13.62c-.07-.83-.17-1.66-.22-2.49-.73-10.82,1.1-12.91,11.71-13.37,2.99-.13,6-.34,8.99-.23,6.81.25,8.83,2.43,8.82,9.18,0,1.83,0,3.66,0,5.5Z"/>
  <path class="cls-2" d="M952.06,441.35c-.39,10.27,2.31,14.06-14.38,13.89-14.99-.16-16.08-.92-15.38-15.73.04-.83.09-1.66.1-2.5.14-10.01,2.44-12.13,12.57-11.59,2.66.14,5.32.35,7.98.41,6.68.15,8.82,2.22,9.09,9.03.08,2.16.01,4.33.01,6.49Z"/>
  <path class="cls-2" d="M1070.92,493.62c-13.84.6-15.13-.66-14.89-14.55q.25-14,14.1-14.9c1.99-.13,3.99-.2,5.98-.14,7.1.21,9.08,2.33,9.16,9.34.04,3.49.5,6.97.46,10.45-.09,7.57-2.41,9.79-9.84,9.8-1.66,0-3.32,0-4.99,0Z"/>
  <path class="cls-2" d="M771.22,464.16c1.16.07,2.33.17,3.49.22,9.32.4,11.4,2.77,10.84,12.29-.19,3.16-.5,6.33-.36,9.47.21,4.61-2.13,7.05-6.35,7.32-5.47.36-10.99.36-16.46.06-4.22-.23-6.63-2.68-6.54-7.21.09-4.5-.05-8.99.03-13.49.11-6.19,2.11-8.29,8.36-8.73,2.32-.17,4.66-.03,6.99-.03,0,.03,0,.07,0,.1Z"/>
  <path class="cls-2" d="M919.78,493.73q-13.41-.66-13.82-14.09c-.46-14.71.22-15.4,15.12-15.51,13.63-.1,15.24,1.6,14.44,15.25,0,.17-.03.33-.03.5-.79,13.93-1.5,14.56-15.7,13.85Z"/>
  <path class="cls-2" d="M1167.79,570.76c-14.27.52-14.95-.44-15.06-15.01-.12-16.72,2.89-14.3,14.06-14.58,1.83-.05,3.66-.17,5.49-.14,7.63.1,9.69,2.19,9.84,9.78.08,3.82.58,7.67.32,11.47-.45,6.57-2.68,8.44-9.16,8.49-1.83.01-3.66,0-5.5,0Z"/>
  <path class="cls-2" d="M1055.87,556.37c0-.33,0-.67,0-1,.34-12.86,1.5-13.91,14.72-13.29,1.66.08,3.33.2,4.99.23,7.85.16,10.04,2.27,10.05,10.13,0,4.33.23,8.77-.69,12.93-.49,2.21-3.02,5.31-4.97,5.59-5.87.84-11.93.8-17.88.48-3.95-.21-6.22-2.96-6.34-7.08-.08-2.66-.01-5.33-.01-7.99.04,0,.08,0,.12,0Z"/>
  <path class="cls-2" d="M1015.32,531.92c-14.19.01-14.94-1.19-14.67-15.47.28-15.17,1.63-13.87,14.34-14.23,14.15-.4,15.45.76,15.12,14.99q-.35,14.7-14.78,14.71Z"/>
  <path class="cls-2" d="M884.91,440.96c0-1,.02-2,0-2.99-.25-10.21,1.25-11.84,11.42-12.16,3.81-.12,7.65-.3,11.44-.03,4.51.32,6.82,3.01,6.84,7.6.03,4.66.28,9.32.1,13.97-.18,4.6-2.56,7.55-7.43,7.69-4.98.14-9.98.25-14.95-.02-5.38-.3-7.18-2.54-7.2-8.07,0-2,0-3.99,0-5.99-.08,0-.16,0-.23,0Z"/>
  <path class="cls-2" d="M880.11,516.22c.67,14.37-.02,15.13-14.44,15.66-14.05.52-15.69-1.1-15.12-15q.57-13.9,14.44-14.69c13.25-.75,14.49.39,15.12,14.02Z"/>
  <path class="cls-2" d="M728.75,595.49c.21,12.14-.16,13.85-14.27,13.89-14.59.05-15.55-.84-15.46-15.31.07-10.58-1.7-15.3,15.34-14.32,14.3.82,15.06,1.48,14.39,15.74Z"/>
  <path class="cls-2" d="M917.4,516.36c.08,1.5.26,3,.22,4.49-.24,8.76-2.59,11.6-10.87,10.98-3.64-.28-7.33.2-10.99.16-4.73-.06-7.64-2.47-7.83-7.26-.22-5.32-.17-10.66.09-15.98.19-3.79,2.32-6.22,6.33-6.38,4.49-.19,8.99-.35,13.48-.28,7.11.11,9.09,2.2,9.27,9.28.04,1.67.16,3.33.24,4.99.02,0,.04,0,.06,0Z"/>
  <path class="cls-2" d="M1220.78,517.43c.56,13.71-.66,14.97-14.19,14.75-15.55-.25-15.87-.59-15.31-16.21.05-1.5.05-2.99.06-4.49.04-6.59,2.03-8.53,8.68-8.59,3.66-.03,7.32-.31,10.97-.25,7.83.13,9.75,2.11,9.79,9.79.01,1.66,0,3.33,0,4.99Z"/>
  <path class="cls-2" d="M1205.39,579.91c13.86-.79,15.97.45,15.52,13.95-.05,1.49.13,2.99.13,4.49.02,8.79-1.98,10.77-10.85,10.85-3.49.03-6.99.37-10.47.21-5.78-.27-8.22-2.58-8.54-8.27-.25-4.47-.19-8.99.13-13.46.43-6.03,2.56-7.78,8.58-7.76,1.83,0,3.66,0,5.49,0Z"/>
  <path class="cls-2" d="M1037.75,515.82q.74-13.42,14.55-13.62c14.52-.21,15.7,1.02,14.96,15.6-.05,1-.09,2-.1,2.99-.1,9.78-1.82,11.44-11.79,11.25-2.99-.06-5.99-.21-8.98-.27-5.87-.11-8.17-2.15-8.6-7.98-.2-2.65-.03-5.32-.03-7.98Z"/>
  <path class="cls-2" d="M786.56,425.82c14.27-.63,15.46.54,15.22,14.78-.02,1.16.04,2.33.04,3.5.01,9.1-1.6,10.78-10.54,10.9-4.15.06-8.32.33-12.46.05-4.26-.29-6.55-2.85-6.62-7.25-.07-4.16-.32-8.32-.26-12.48.1-7.28,2.4-9.47,9.63-9.5,1.66,0,3.33,0,4.99,0Z"/>
  <path class="cls-2" d="M997.88,441.01c0-.83.02-1.67,0-2.5-.32-10.82,1.03-12.31,11.86-12.72,3.65-.14,7.32-.25,10.96,0,4.26.29,6.72,2.69,6.76,7.12.04,5.16.02,10.33-.04,15.49-.06,4.28-2.5,6.45-6.58,6.59-5.16.18-10.34.28-15.49.04-5.44-.26-7.2-2.43-7.22-8.02,0-2,0-4,0-6-.08,0-.16,0-.24,0Z"/>
  <path class="cls-2" d="M1018.56,557.07c0-.66,0-1.33,0-1.99.1-11.99,1.66-13.5,13.53-13.08,2.98.11,5.97.16,8.95.26,4.33.15,6.83,2.3,6.96,6.74.14,4.81.27,9.62.16,14.43-.12,5.32-2.19,7.82-7.37,8.2-4.94.37-9.96.28-14.91-.07-5.48-.39-6.98-2.3-7.21-8.02-.08-2.15-.01-4.31-.01-6.47h-.11Z"/>
  <path class="cls-2" d="M1168.16,579.82c13.26.6,13.34.68,13.47,14.02.14,15.26-.65,15.49-16.09,15.55-12.08.05-14.19-1.44-13.45-15.18.04-.83.18-1.67.1-2.49-.9-9.36,1.12-12.84,13.49-12.03.83.05,1.66.09,2.49.12Z"/>
  <path class="cls-2" d="M1064.64,442.05c-.02.24-.06.73-.08,1.23-.46,11.4-1.07,11.95-12.89,11.86-2.99-.02-5.98.08-8.95-.06-4.73-.21-7.44-2.76-7.55-7.51-.12-5.14-.04-10.29.23-15.43.2-3.87,2.63-6.18,6.42-6.32,5.63-.21,11.28-.2,16.9.11,3.7.21,5.5,3.03,5.86,6.41.33,3.11.07,6.29.07,9.7Z"/>
  <path class="cls-2" d="M754,579.91c14.8-.7,15.34-.2,15.91,14.56.06,1.5.13,2.99.12,4.49-.08,8.18-2.14,10.18-10.42,10.25-3.32.03-6.65.35-9.97.25-6.83-.2-9.34-2.69-9.54-9.42-.11-3.82-.08-7.65.13-11.47.39-6.88,2.42-8.68,9.29-8.66,1.5,0,2.99,0,4.49,0Z"/>
  <path class="cls-2" d="M1128.43,609.29c-.83-.04-1.66-.09-2.49-.12-10.01-.33-11.05-1.41-11.03-11.34,0-3.33-.2-6.67,0-9.98.32-5.53,2.63-7.9,8.09-8.09,4.99-.17,9.99-.03,14.98.17,4,.15,6.21,2.79,6.36,6.44.24,5.96.24,11.99-.5,17.89-.22,1.78-3,4.03-5.02,4.6-3.27.92-6.88.62-10.35.84,0-.14-.02-.27-.03-.41Z"/>
  <path class="cls-2" d="M750.2,425.73c14.01-.05,14.28.21,14.25,14.64,0,3.15.31,6.47-.55,9.4-.59,2-2.83,4.72-4.6,4.94-5.74.7-11.62.63-17.42.39-4.51-.19-6.82-2.91-6.79-7.58.03-4.16-.27-8.33-.2-12.49.13-7.12,2.22-9.14,9.32-9.3,2-.05,4,0,6,0Z"/>
  <path class="cls-2" d="M839.13,441.19c-.32,11.03,1.94,14.14-14.7,14.04-14.57-.09-15.96-1.27-15.03-16.06.03-.5.09-1,.11-1.49.43-11.15,2.3-12.85,13.39-12.17,1.99.12,3.99.27,5.98.32,8.3.2,10.22,2.13,10.25,10.36,0,1.66,0,3.33,0,4.99Z"/>
  <path class="cls-2" d="M807.18,595.44c-.5,13.72-1.79,14.86-15.74,13.88-1.16-.08-2.32-.14-3.49-.17-8.79-.2-11-2.53-10.72-11.44.11-3.48.45-6.97.4-10.45-.06-4.54,2.27-6.86,6.52-7.19,4.47-.35,8.97-.47,13.45-.39,7.12.12,9.46,2.62,9.57,9.78.03,1.99,0,3.99,0,5.98Z"/>
  <path class="cls-2" d="M934.99,555.95c.61,14.94.57,14.99-14.08,15.79-1,.05-2,.09-2.99.12-10.66.36-13.02-2.99-12.07-11.53.38-3.44-.13-6.98-.17-10.47-.05-4.95,2.81-7.4,7.38-7.67,4.81-.29,9.66-.28,14.47,0,5.79.34,7.47,2.4,7.47,8.26,0,1.83,0,3.66,0,5.49Z"/>
  <path class="cls-2" d="M1087.8,455c-13.76.98-14.76.11-15.57-13.38-.03-.5-.05-1-.07-1.5-.56-12.45.84-13.97,13.32-14.35,16.21-.51,16.42-.3,16.44,16.05,0,1.16.05,2.33.03,3.49-.14,7.98-1.83,9.67-9.66,9.69-1.5,0-2.99,0-4.49,0Z"/>
  <path class="cls-2" d="M847.97,439.97c0-1,.09-2.01-.01-2.99-.93-9.17,2.08-11.87,12.66-11.53,2.83.09,5.65.34,8.48.4,5.71.13,8.02,1.81,8.38,7.55.34,5.45.05,10.98-.39,16.44-.29,3.56-3.12,4.97-6.38,5.14-4.48.25-8.99.42-13.47.3-7.27-.2-9.41-2.53-9.48-9.82-.02-1.83,0-3.66,0-5.49.07,0,.14,0,.21,0Z"/>
  <path class="cls-2" d="M1139.3,441.65q-.82,13.4-14.13,13.5c-15.45.11-16.23-.69-15.51-15.93.02-.33.03-.67.04-1,.37-11.99,2.01-13.43,14.35-12.62,1.66.11,3.33.19,4.99.22,8.35.18,10.15,1.98,10.25,10.34.02,1.83,0,3.66,0,5.49Z"/>
  <path class="cls-2" d="M1077.82,594.77c-.46-14.34.49-15.29,14.99-14.97q13.61.3,14.4,14.03c.08,1.33.27,2.65.29,3.98.11,8.48-2.25,12.23-10.85,11.41-3.44-.33-6.98.49-10.45.25-6.46-.44-8.34-2.69-8.39-9.22-.01-1.83,0-3.66,0-5.49Z"/>
  <path class="cls-2" d="M828.23,609.3c-.83-.05-1.66-.11-2.49-.14-9.96-.34-11.04-1.45-10.98-11.33.02-3.66-.15-7.32.09-10.97.29-4.48,2.85-7.04,7.4-7.11,5.15-.08,10.31,0,15.46.17,4.03.13,6.15,2.7,6.3,6.41.24,5.8.42,11.68-.31,17.41-.25,1.95-3.01,4.45-5.12,5.11-3.22,1.01-6.87.63-10.33.85,0-.13-.02-.26-.02-.4Z"/>
  <path class="cls-2" d="M974.21,425.74c14.47-.08,15.38.86,14.77,15.19-.04,1-.21,2.01-.1,2.99,1.18,10.63-3.88,11.76-12.61,11.43-2.99-.11-5.98-.25-8.98-.3-5.22-.09-7.22-1.75-7.55-7.09-.29-4.64-.27-9.32-.12-13.97.21-6.37,2.11-8.08,8.59-8.24,2-.05,3.99,0,5.99,0Z"/>
  <path class="cls-2" d="M712.89,425.67q14.29.01,14.28,14.59,0,14.13-13.93,14.88c-14.06.76-14.81.08-15.39-14.02-.61-14.58.25-15.47,15.05-15.45Z"/>
</svg>